<?xml version="1.0" encoding="utf-8" ?>
<svg xmlns="http://www.w3.org/2000/svg" xmlns:xlink="http://www.w3.org/1999/xlink" width="20" height="19">
	<path fill="#075697" d="M0 17.84897L17.898968 0L17.898968 8.6121283C17.615566 8.478261 17.324709 8.3704233 17.026392 8.2886152C16.728077 8.2068081 16.422302 8.1435928 16.10907 8.0989704L16.10907 4.3060641L4.3181257 16.064074L9.1732206 16.064074C9.2627153 16.391304 9.3820419 16.699944 9.5312004 16.989988C9.6803579 17.280035 9.8444319 17.566362 10.023421 17.84897L0 17.84897ZM4.3181257 16.064074L16.10907 4.3060641L10.213598 10.185069L4.3181257 16.064074ZM14.319174 18.741419L14.05069 17.402746C13.871699 17.328375 13.703897 17.250286 13.547281 17.168478C13.390665 17.08667 13.23032 16.986271 13.066246 16.867277L11.768571 17.268879L10.873623 15.751717L11.902813 14.859268C11.872982 14.665904 11.858066 14.47254 11.858066 14.279176C11.858066 14.085813 11.872982 13.892448 11.902813 13.699084L10.873623 12.806636L11.768571 11.289474L13.066246 11.691075C13.23032 11.572083 13.390665 11.471682 13.547281 11.389874C13.703897 11.308066 13.871699 11.229977 14.05069 11.155606L14.319174 9.8169336L16.10907 9.8169336L16.377556 11.155606C16.556545 11.229977 16.724348 11.308066 16.880964 11.389874C17.03758 11.471682 17.197924 11.572083 17.361998 11.691075L18.659674 11.289474L19.554623 12.806636L18.525431 13.699084C18.555264 13.892448 18.570179 14.085813 18.570179 14.279176C18.570179 14.47254 18.555264 14.665904 18.525431 14.859268L19.554623 15.751717L18.659674 17.268879L17.361998 16.867277C17.197924 16.986271 17.03758 17.08667 16.880964 17.168478C16.724348 17.250286 16.556545 17.328375 16.377556 17.402746L16.10907 18.741419L14.319174 18.741419ZM15.214122 16.064074C15.706344 16.064074 16.127716 15.889302 16.478237 15.53976C16.828758 15.190217 17.004019 14.770023 17.004019 14.279176C17.004019 13.788329 16.828758 13.368135 16.478237 13.018593C16.127716 12.66905 15.706344 12.494279 15.214122 12.494279C14.721901 12.494279 14.300529 12.66905 13.950007 13.018593C13.599486 13.368135 13.424226 13.788329 13.424226 14.279176C13.424226 14.770023 13.599486 15.190217 13.950007 15.53976C14.300529 15.889302 14.721901 16.064074 15.214122 16.064074Z"/>
</svg>
