<?xml version="1.0" encoding="utf-8" ?>
<svg xmlns="http://www.w3.org/2000/svg" xmlns:xlink="http://www.w3.org/1999/xlink" width="16" height="20">
	<path fill="white" d="M6.5625 16.575001L8.4375 16.575001L8.4375 15.6L9.375 15.6C9.640625 15.6 9.8632812 15.506562 10.042969 15.319688C10.222656 15.132812 10.3125 14.90125 10.3125 14.625L10.3125 11.7C10.3125 11.42375 10.222656 11.192187 10.042969 11.005313C9.8632812 10.818438 9.640625 10.725 9.375 10.725L6.5625 10.725L6.5625 9.75L10.3125 9.75L10.3125 7.8000002L8.4375 7.8000002L8.4375 6.8249998L6.5625 6.8249998L6.5625 7.8000002L5.625 7.8000002C5.359375 7.8000002 5.1367188 7.8934374 4.9570312 8.0803127C4.7773438 8.2671871 4.6875 8.4987497 4.6875 8.7749996L4.6875 11.7C4.6875 11.97625 4.7773438 12.207812 4.9570312 12.394688C5.1367188 12.581562 5.359375 12.675 5.625 12.675L8.4375 12.675L8.4375 13.65L4.6875 13.65L4.6875 15.6L6.5625 15.6L6.5625 16.575001ZM1.875 19.5C1.359375 19.5 0.91796875 19.309063 0.55078125 18.927187C0.18359375 18.545313 0 18.08625 0 17.549999L0 1.95C0 1.4137501 0.18359375 0.95468748 0.55078125 0.5728125C0.91796875 0.1909375 1.359375 0 1.875 0L9.375 0L15 5.8499999L15 17.549999C15 18.08625 14.816406 18.545313 14.449219 18.927187C14.082031 19.309063 13.640625 19.5 13.125 19.5L1.875 19.5ZM8.4375 5.8499999L8.4375 1.95L1.875 1.95L1.875 17.549999L13.125 17.549999L13.125 5.8499999L8.4375 5.8499999ZM1.9382813 1.95L1.9382813 5.8499999L1.9382813 1.95L1.9382813 17.549999L1.9382813 1.95Z"/>
</svg>
