<?xml version="1.0" encoding="utf-8" ?>
<svg xmlns="http://www.w3.org/2000/svg" xmlns:xlink="http://www.w3.org/1999/xlink" width="22" height="20">
	<path fill="#075697" d="M0 16L0.5 14L6 14L5.5 16L0 16ZM2 12L2.5 10L9 10L8.5 12L2 12ZM17.575001 18L18.075001 14L18.799999 8L19.049999 6.0250001L17.575001 18ZM5 20C4.4499998 20 3.9791667 19.804167 3.5875001 19.4125C3.1958334 19.020834 3 18.549999 3 18L17.575001 18L19.049999 6.0250001L16.299999 6.0250001L16.025 8.1499996C15.991667 8.4333334 15.866667 8.6541662 15.65 8.8125C15.433333 8.9708338 15.183333 9.0333338 14.9 9C14.616667 8.9666662 14.395833 8.8458338 14.2375 8.6374998C14.079166 8.4291668 14.016666 8.1833334 14.05 7.9000001L14.275 6.0250001L10.3 6.0250001L10.025 8.125C9.9916668 8.4083338 9.8666668 8.6333332 9.6499996 8.8000002C9.4333334 8.9666662 9.1833334 9.0333338 8.8999996 9C8.6166668 8.9666662 8.3916664 8.8416662 8.2250004 8.625C8.0583334 8.4083338 7.9916668 8.1583338 8.0249996 7.875L8.25 6.0250001L4.5 6.0250001C4.5666666 5.4583335 4.7833333 4.9791665 5.1500001 4.5875001C5.5166669 4.1958332 5.9666667 4 6.5 4L8.5 4C8.6333332 2.75 9.0625 1.7708334 9.7875004 1.0625C10.5125 0.35416666 11.5 0 12.75 0C13.816667 0 14.704166 0.39583334 15.4125 1.1875C16.120832 1.9791666 16.466667 2.9166667 16.450001 4L19 4C19.6 4.0166669 20.1 4.25 20.5 4.6999998C20.9 5.1500001 21.058332 5.6750002 20.975 6.2750001L19.475 18.275C19.408333 18.775 19.1875 19.1875 18.8125 19.512501C18.4375 19.8375 18 20 17.5 20L5 20ZM10.5 4L14.475 4C14.491667 3.45 14.304167 2.9791667 13.9125 2.5875001C13.520833 2.1958334 13.05 2 12.5 2C11.916667 2 11.454166 2.1791666 11.1125 2.5374999C10.770833 2.8958333 10.566667 3.3833334 10.5 4Z"/>
</svg>
