<svg class="quick-view-icon" aria-hidden="true" viewBox="0 0 15 10">
<path fill="#999" d="M7.5 8q1.279 0 2.173-.875A2.86 2.86 0 0 0 10.568 5a2.86 2.86 0 0 0-.895-2.125Q8.78 2 7.5 2t-2.173.875A2.86 2.86 0 0 0 4.432 5q0 1.25.895 2.125Q6.22 8 7.5 8m0-1.2q-.767 0-1.304-.525A1.72 1.72 0 0 1 5.659 5q0-.75.537-1.275T7.5 3.2t1.304.525T9.341 5t-.537 1.275T7.5 6.8m0 3.2a8 8 0 0 1-4.534-1.358A7.76 7.76 0 0 1 0 5a7.76 7.76 0 0 1 2.966-3.642A8 8 0 0 1 7.5 0q2.489 0 4.534 1.358A7.76 7.76 0 0 1 15 5a7.76 7.76 0 0 1-2.966 3.642A8 8 0 0 1 7.5 10m0-1.333q1.926 0 3.537-.992A6.57 6.57 0 0 0 13.5 5a6.57 6.57 0 0 0-2.463-2.675A6.6 6.6 0 0 0 7.5 1.333q-1.926 0-3.537.992A6.57 6.57 0 0 0 1.5 5a6.57 6.57 0 0 0 2.463 2.675 6.6 6.6 0 0 0 3.537.992"/>
</svg>