<svg class="quick-view-icon" aria-hidden="true" viewBox="0 0 15 14">
<path  d="M10.295 7.424 9.307 6.4q.153-.83-.46-1.556-.614-.724-1.586-.565l-.988-1.025q.29-.142.588-.213.298-.07.639-.07 1.279 0 2.173.928.895.927.895 2.254 0 .353-.068.662t-.205.61m2.182 2.228-.988-.99a7.6 7.6 0 0 0 1.15-1.123q.503-.61.861-1.387-.853-1.785-2.446-2.838Q9.46 2.264 7.5 2.263q-.494 0-.972.07-.477.07-.937.212L4.534 1.45A7.4 7.4 0 0 1 7.5.85q2.574 0 4.585 1.475A8.37 8.37 0 0 1 15 6.152a8.4 8.4 0 0 1-1.031 1.935 7.7 7.7 0 0 1-1.492 1.565M12.818 14l-2.863-2.934q-.597.195-1.202.291a8 8 0 0 1-1.253.098q-2.574 0-4.585-1.476A8.37 8.37 0 0 1 0 6.152q.359-.937.903-1.742a8 8 0 0 1 1.245-1.44L.273.99 1.227 0l12.546 13.01zM3.102 3.96q-.494.46-.903 1.007T1.5 6.152q.853 1.784 2.446 2.837Q5.54 10.039 7.5 10.04q.34 0 .665-.044.323-.045.665-.097l-.614-.672a3 3 0 0 1-.358.08 2.9 2.9 0 0 1-2.531-.902q-.895-.928-.895-2.253 0-.195.025-.372t.077-.37z"/>
</svg>